<svg width="1156" height="698" viewBox="0 0 1156 698" fill="none" xmlns="http://www.w3.org/2000/svg">
  <g clip-path="url(#clip0)">
    <path opacity="0.1"
      d="M1143.41 650.64C1138.94 661.639 1133.45 672.192 1127 682.16C1123.97 686.914 1120.65 691.476 1117.06 695.82L1116.95 695.95H17.9999L5.79998 695.81C0.499979 692.5 12.67 690.28 21.8 682.15C28.35 676.31 36.57 668.73 45.8 659.61C121.29 585.36 266.3 409.61 145.53 248.61C33.26 98.94 154.14 71.77 233.88 68.61C264.519 67.4205 295.084 72.4166 323.75 83.3C360.58 97.3 427.91 118.77 515.63 128.6C518.51 128.927 521.417 129.24 524.35 129.54C570.792 134.265 617.547 135.111 664.13 132.07C665.5 132 666.88 131.9 668.27 131.8C714.352 128.556 760.083 121.478 804.99 110.64C807.9 109.93 810.77 109.26 813.63 108.64C963.26 74.02 1101.2 192.01 1066.72 325.36C1053.96 374.67 1057.2 427.25 1099.72 469.77C1169.27 539.21 1160.8 607.57 1143.41 650.64Z"
      fill="#6C63FF" />
    <path
      d="M907.029 277.024C910.816 270.251 909.693 262.416 904.52 259.524C899.348 256.632 892.085 259.778 888.298 266.551C884.512 273.324 885.635 281.159 890.807 284.051C895.98 286.943 903.243 283.797 907.029 277.024Z"
      fill="#3F3D56" />
    <path
      d="M915.405 262.034C919.192 255.261 918.069 247.427 912.896 244.535C907.724 241.643 900.461 244.789 896.674 251.562C892.887 258.334 894.011 266.169 899.183 269.061C904.355 271.953 911.618 268.807 915.405 262.034Z"
      fill="#3F3D56" />
    <path
      d="M923.79 247.049C927.576 240.277 926.453 232.442 921.281 229.55C916.108 226.658 908.845 229.804 905.058 236.577C901.272 243.35 902.395 251.185 907.567 254.077C912.74 256.968 920.003 253.822 923.79 247.049Z"
      fill="#3F3D56" />
    <path
      d="M932.165 232.05C935.952 225.277 934.829 217.442 929.656 214.55C924.484 211.658 917.221 214.804 913.434 221.577C909.647 228.35 910.771 236.185 915.943 239.077C921.116 241.969 928.378 238.823 932.165 232.05Z"
      fill="#3F3D56" />
    <path
      d="M940.536 217.069C944.323 210.296 943.2 202.461 938.027 199.569C932.855 196.677 925.592 199.823 921.805 206.596C918.018 213.369 919.142 221.204 924.314 224.096C929.486 226.988 936.749 223.842 940.536 217.069Z"
      fill="#3F3D56" />
    <path
      d="M948.922 202.079C952.709 195.306 951.585 187.471 946.413 184.579C941.24 181.688 933.978 184.834 930.191 191.607C926.404 198.379 927.527 206.214 932.7 209.106C937.872 211.998 945.135 208.852 948.922 202.079Z"
      fill="#3F3D56" />
    <path
      d="M957.306 187.094C961.093 180.322 959.97 172.487 954.797 169.595C949.625 166.703 942.362 169.849 938.575 176.622C934.788 183.395 935.912 191.229 941.084 194.121C946.257 197.013 953.519 193.867 957.306 187.094Z"
      fill="#3F3D56" />
    <path d="M679.98 696.14L484.98 693.64L485.55 688.64L494.98 606.14H666.23L678.83 688.64L679.79 694.89L679.98 696.14Z"
      fill="#D0D2D5" />
    <path opacity="0.1" d="M679.79 694.89H582.48L484.98 693.64L485.55 688.64H678.83L679.79 694.89Z" fill="black" />
    <path d="M711.23 689.89H452.48V696.14H711.23V689.89Z" fill="#D0D2D5" />
    <path
      d="M958.1 110.62C958.121 106.304 956.428 102.156 953.392 99.0883C950.356 96.0205 946.226 94.2838 941.91 94.26H219.3C217.162 94.2705 215.047 94.702 213.076 95.5298C211.105 96.3577 209.316 97.5657 207.812 99.0848C206.307 100.604 205.117 102.405 204.309 104.384C203.5 106.363 203.09 108.482 203.1 110.62V548.62H958.1V110.62Z"
      fill="#444053" />
    <path
      d="M203.1 544.26V595.57C203.093 597.701 203.508 599.813 204.319 601.783C205.13 603.754 206.323 605.545 207.828 607.054C209.333 608.563 211.121 609.76 213.09 610.576C215.058 611.392 217.169 611.811 219.3 611.81H941.91C946.204 611.81 950.322 610.104 953.358 607.068C956.394 604.032 958.1 599.914 958.1 595.62V544.26H203.1Z"
      fill="#D0D2D5" />
    <path opacity="0.1" d="M930.6 121.76H234.35V515.51H930.6V121.76Z" fill="#6C63FF" />
    <path
      d="M584.35 592.3C586.907 592.302 589.43 591.723 591.731 590.607C594.031 589.492 596.048 587.869 597.63 585.86V585.86C598.108 585.245 598.545 584.601 598.94 583.93L589.68 582.41L599.68 582.48C600.644 580.392 601.17 578.128 601.225 575.828C601.28 573.529 600.863 571.242 600 569.11L586.57 576.11L598.96 567.01C597.823 564.969 596.274 563.187 594.412 561.776C592.55 560.365 590.415 559.357 588.143 558.814C585.871 558.271 583.511 558.206 581.212 558.623C578.913 559.04 576.726 559.93 574.79 561.237C572.853 562.543 571.209 564.238 569.961 566.213C568.713 568.188 567.89 570.401 567.542 572.711C567.194 575.021 567.33 577.378 567.941 579.633C568.551 581.888 569.624 583.991 571.09 585.81V585.81C572.664 587.826 574.675 589.458 576.972 590.582C579.27 591.707 581.792 592.294 584.35 592.3Z"
      fill="#6C63FF" />
    <path opacity="0.1" d="M601.23 611.76L679.02 689.89L667.09 611.76H601.23Z" fill="black" />
    <path d="M791.23 175.38H253.73V460.79H791.23V175.38Z" fill="white" />
    <path opacity="0.1" d="M433.63 249.78H283.71V257.55H433.63V249.78Z" fill="#6C63FF" />
    <path opacity="0.1" d="M311.48 208.69H297.04V249.78H311.48V208.69Z" fill="#6C63FF" />
    <path opacity="0.1" d="M332.58 208.69H318.14V249.78H332.58V208.69Z" fill="#6C63FF" />
    <path opacity="0.1" d="M353.68 208.69H339.24V249.78H353.68V208.69Z" fill="#6C63FF" />
    <path opacity="0.1" d="M374.78 208.69H360.34V249.78H374.78V208.69Z" fill="#6C63FF" />
    <path opacity="0.1" d="M395.88 208.69H381.44V249.78H395.88V208.69Z" fill="#6C63FF" />
    <path opacity="0.1" d="M416.98 208.69H402.54V249.78H416.98V208.69Z" fill="#6C63FF" />
    <path opacity="0.1" d="M311.48 216.47H297.04V220.91H311.48V216.47Z" fill="#6C63FF" />
    <path opacity="0.1" d="M332.58 216.47H318.14V220.91H332.58V216.47Z" fill="#6C63FF" />
    <path opacity="0.1" d="M353.68 216.47H339.24V220.91H353.68V216.47Z" fill="#6C63FF" />
    <path opacity="0.1" d="M374.78 216.47H360.34V220.91H374.78V216.47Z" fill="#6C63FF" />
    <path opacity="0.1" d="M395.88 216.47H381.44V220.91H395.88V216.47Z" fill="#6C63FF" />
    <path opacity="0.1" d="M416.98 216.47H402.54V220.91H416.98V216.47Z" fill="#6C63FF" />
    <path opacity="0.1" d="M311.48 236.46H297.04V240.9H311.48V236.46Z" fill="#6C63FF" />
    <path opacity="0.1" d="M332.58 236.46H318.14V240.9H332.58V236.46Z" fill="#6C63FF" />
    <path opacity="0.1" d="M353.68 236.46H339.24V240.9H353.68V236.46Z" fill="#6C63FF" />
    <path opacity="0.1" d="M374.78 236.46H360.34V240.9H374.78V236.46Z" fill="#6C63FF" />
    <path opacity="0.1" d="M395.88 236.46H381.44V240.9H395.88V236.46Z" fill="#6C63FF" />
    <path opacity="0.1" d="M416.98 236.46H402.54V240.9H416.98V236.46Z" fill="#6C63FF" />
    <path opacity="0.1" d="M762.35 269.77H612.43V277.54H762.35V269.77Z" fill="#6C63FF" />
    <path opacity="0.1" d="M640.2 228.68H625.76V269.77H640.2V228.68Z" fill="#6C63FF" />
    <path opacity="0.1" d="M661.3 228.68H646.86V269.77H661.3V228.68Z" fill="#6C63FF" />
    <path opacity="0.1" d="M682.4 228.68H667.96V269.77H682.4V228.68Z" fill="#6C63FF" />
    <path opacity="0.1" d="M703.5 228.68H689.06V269.77H703.5V228.68Z" fill="#6C63FF" />
    <path opacity="0.1" d="M724.6 228.68H710.16V269.77H724.6V228.68Z" fill="#6C63FF" />
    <path opacity="0.1" d="M745.7 228.68H731.26V269.77H745.7V228.68Z" fill="#6C63FF" />
    <path opacity="0.1" d="M640.2 236.46H625.76V240.9H640.2V236.46Z" fill="#6C63FF" />
    <path opacity="0.1" d="M661.3 236.46H646.86V240.9H661.3V236.46Z" fill="#6C63FF" />
    <path opacity="0.1" d="M682.4 236.46H667.96V240.9H682.4V236.46Z" fill="#6C63FF" />
    <path opacity="0.1" d="M703.5 236.46H689.06V240.9H703.5V236.46Z" fill="#6C63FF" />
    <path opacity="0.1" d="M724.6 236.46H710.16V240.9H724.6V236.46Z" fill="#6C63FF" />
    <path opacity="0.1" d="M745.7 236.46H731.26V240.9H745.7V236.46Z" fill="#6C63FF" />
    <path opacity="0.1" d="M640.2 256.45H625.76V260.89H640.2V256.45Z" fill="#6C63FF" />
    <path opacity="0.1" d="M661.3 256.45H646.86V260.89H661.3V256.45Z" fill="#6C63FF" />
    <path opacity="0.1" d="M682.4 256.45H667.96V260.89H682.4V256.45Z" fill="#6C63FF" />
    <path opacity="0.1" d="M703.5 256.45H689.06V260.89H703.5V256.45Z" fill="#6C63FF" />
    <path opacity="0.1" d="M724.6 256.45H710.16V260.89H724.6V256.45Z" fill="#6C63FF" />
    <path opacity="0.1" d="M745.7 256.45H731.26V260.89H745.7V256.45Z" fill="#6C63FF" />
    <path opacity="0.1" d="M762.35 326.41H612.43V334.18H762.35V326.41Z" fill="#6C63FF" />
    <path opacity="0.1" d="M640.2 285.32H625.76V326.41H640.2V285.32Z" fill="#6C63FF" />
    <path opacity="0.1" d="M661.3 285.32H646.86V326.41H661.3V285.32Z" fill="#6C63FF" />
    <path opacity="0.1" d="M682.4 285.32H667.96V326.41H682.4V285.32Z" fill="#6C63FF" />
    <path opacity="0.1" d="M703.5 285.32H689.06V326.41H703.5V285.32Z" fill="#6C63FF" />
    <path opacity="0.1" d="M724.6 285.32H710.16V326.41H724.6V285.32Z" fill="#6C63FF" />
    <path opacity="0.1" d="M745.7 285.32H731.26V326.41H745.7V285.32Z" fill="#6C63FF" />
    <path opacity="0.1" d="M640.2 293.09H625.76V297.53H640.2V293.09Z" fill="#6C63FF" />
    <path opacity="0.1" d="M661.3 293.09H646.86V297.53H661.3V293.09Z" fill="#6C63FF" />
    <path opacity="0.1" d="M682.4 293.09H667.96V297.53H682.4V293.09Z" fill="#6C63FF" />
    <path opacity="0.1" d="M703.5 293.09H689.06V297.53H703.5V293.09Z" fill="#6C63FF" />
    <path opacity="0.1" d="M724.6 293.09H710.16V297.53H724.6V293.09Z" fill="#6C63FF" />
    <path opacity="0.1" d="M745.7 293.09H731.26V297.53H745.7V293.09Z" fill="#6C63FF" />
    <path opacity="0.1" d="M640.2 313.08H625.76V317.52H640.2V313.08Z" fill="#6C63FF" />
    <path opacity="0.1" d="M661.3 313.08H646.86V317.52H661.3V313.08Z" fill="#6C63FF" />
    <path opacity="0.1" d="M682.4 313.08H667.96V317.52H682.4V313.08Z" fill="#6C63FF" />
    <path opacity="0.1" d="M703.5 313.08H689.06V317.52H703.5V313.08Z" fill="#6C63FF" />
    <path opacity="0.1" d="M724.6 313.08H710.16V317.52H724.6V313.08Z" fill="#6C63FF" />
    <path opacity="0.1" d="M745.7 313.08H731.26V317.52H745.7V313.08Z" fill="#6C63FF" />
    <path opacity="0.1"
      d="M375.66 337.66C374.538 336.232 373.516 334.728 372.6 333.16L394.19 329.62L370.8 329.81C368.561 324.937 367.34 319.658 367.211 314.297C367.082 308.936 368.048 303.605 370.05 298.63L401.37 314.88L372.49 293.65C375.188 288.963 378.824 284.882 383.17 281.663C387.516 278.444 392.479 276.155 397.749 274.939C403.019 273.724 408.483 273.608 413.8 274.598C419.117 275.589 424.172 277.665 428.651 280.697C433.13 283.728 436.935 287.651 439.83 292.219C442.725 296.787 444.648 301.903 445.477 307.248C446.306 312.592 446.025 318.05 444.651 323.281C443.277 328.512 440.839 333.403 437.49 337.65C439.247 339.868 440.759 342.268 442 344.81L414 359.36L443.87 349.36C445.97 355.559 446.49 362.183 445.383 368.634C444.276 375.084 441.577 381.156 437.53 386.3C442.097 392.104 444.938 399.076 445.729 406.419C446.52 413.761 445.228 421.178 442.002 427.822C438.776 434.465 433.746 440.066 427.486 443.985C421.226 447.904 413.99 449.982 406.605 449.982C399.22 449.982 391.984 447.904 385.724 443.985C379.465 440.066 374.434 434.465 371.208 427.822C367.982 421.178 366.69 413.761 367.481 406.419C368.272 399.076 371.113 392.104 375.68 386.3C370.226 379.365 367.261 370.798 367.261 361.975C367.261 353.152 370.226 344.585 375.68 337.65L375.66 337.66Z"
      fill="#6C63FF" />
    <path opacity="0.1"
      d="M445.93 361.99C445.942 370.813 442.975 379.383 437.51 386.31C442.077 392.114 444.918 399.086 445.709 406.429C446.5 413.771 445.208 421.188 441.982 427.832C438.756 434.475 433.726 440.076 427.466 443.995C421.206 447.914 413.97 449.992 406.585 449.992C399.2 449.992 391.964 447.914 385.704 443.995C379.444 440.076 374.414 434.475 371.188 427.832C367.962 421.188 366.67 413.771 367.461 406.429C368.252 399.086 371.093 392.114 375.66 386.31C370.39 379.62 445.93 357.57 445.93 361.99Z"
      fill="#6C63FF" />
    <path opacity="0.2"
      d="M412.9 460.46C412.97 460.57 413.02 460.68 413.09 460.79H399.73C399.8 460.68 399.85 460.57 399.92 460.46C398.773 458.458 398.179 456.187 398.2 453.88C398.198 452.301 398.472 450.734 399.01 449.25C399.01 449.25 399.01 449.25 399.01 449.25C399.75 449.37 400.67 449.5 401.73 449.61C404.829 449.92 407.951 449.92 411.05 449.61C411.93 449.52 412.86 449.39 413.8 449.25C413.801 449.273 413.801 449.297 413.8 449.32C414.327 450.782 414.594 452.326 414.59 453.88C414.62 456.184 414.037 458.455 412.9 460.46V460.46Z"
      fill="#3F3D56" />
    <path opacity="0.1"
      d="M364.89 460.81H290.59C290.42 460.38 290.27 459.93 290.14 459.49C287.52 451.064 287.827 442 291.01 433.77C283.749 428.755 278.385 421.443 275.78 413.011C273.176 404.579 273.482 395.517 276.65 387.28C275.156 386.243 273.732 385.107 272.39 383.88L291.97 374.12L269.72 381.18C266.139 377.185 263.412 372.5 261.707 367.414C260.001 362.328 259.352 356.946 259.8 351.6L294.52 357.87L260.66 346.11C261.857 340.836 264.128 335.865 267.332 331.507C270.537 327.15 274.605 323.5 279.282 320.785C283.96 318.07 289.147 316.349 294.52 315.729C299.893 315.108 305.336 315.602 310.51 317.179C315.683 318.756 320.476 321.383 324.589 324.896C328.701 328.408 332.046 332.73 334.414 337.593C336.781 342.456 338.121 347.755 338.349 353.158C338.577 358.562 337.689 363.955 335.74 369C338.066 370.612 340.214 372.466 342.15 374.53L319.67 396.71L345.26 378.31C349.095 383.616 351.546 389.795 352.391 396.287C353.237 402.779 352.449 409.379 350.1 415.49C357.183 420.386 362.465 427.47 365.137 435.656C367.808 443.842 367.721 452.678 364.89 460.81V460.81Z"
      fill="#6C63FF" />
    <path opacity="0.1"
      d="M364.89 460.81H290.59C290.42 460.38 290.27 459.93 290.14 459.49C287.52 451.064 287.827 442 291.01 433.77C284.01 428.92 349.67 385.56 351.01 389.77C353.619 398.201 353.313 407.265 350.14 415.5C357.214 420.401 362.487 427.486 365.151 435.669C367.815 443.853 367.723 452.684 364.89 460.81V460.81Z"
      fill="#6C63FF" />
    <path opacity="0.1"
      d="M701.34 407.5C696.827 415.082 689.885 420.917 681.64 424.06C681.992 426.87 682.049 429.708 681.81 432.53L650.29 430.64L681.07 437.37C679.036 446.775 673.633 455.111 665.88 460.81H622.98V461.92H579.31C579.4 461.54 579.49 461.17 579.59 460.81C581.195 454.778 584.207 449.212 588.379 444.569C592.55 439.926 597.763 436.339 603.59 434.1C602.475 425.345 604.333 416.468 608.866 408.895C613.4 401.323 620.346 395.492 628.59 392.34C628.355 390.54 628.245 388.725 628.26 386.91L648.61 394.91L628.49 383.09C629.065 377.764 630.719 372.61 633.351 367.944C635.983 363.278 639.539 359.197 643.8 355.95L662.34 385.95L648.45 352.95C656.017 348.741 664.761 347.146 673.327 348.413C681.893 349.68 689.801 353.737 695.826 359.956C701.851 366.175 705.656 374.207 706.652 382.809C707.647 391.41 705.776 400.1 701.33 407.53L701.34 407.5Z"
      fill="#6C63FF" />
    <path opacity="0.1"
      d="M676.37 449.26C673.692 453.781 670.123 457.71 665.88 460.81H622.98V461.92H579.31C579.4 461.54 579.49 461.17 579.59 460.81C581.195 454.778 584.207 449.212 588.379 444.569C592.55 439.926 597.763 436.338 603.59 434.1C603.22 431.23 611.7 431.62 622.99 433.52C645.06 437.22 677.87 446.75 676.37 449.26Z"
      fill="#6C63FF" />
    <path
      d="M490.45 344.27C490.45 344.27 495.8 373.44 483.8 382.95C471.8 392.46 493.94 449.53 530.72 442.88C567.5 436.23 582.4 388.34 582.4 388.34C582.4 388.34 545.62 380.74 559.25 342.06L490.45 344.27Z"
      fill="#EFB7B9" />
    <path opacity="0.1"
      d="M490.45 344.27C490.45 344.27 495.8 373.44 483.8 382.95C471.8 392.46 493.94 449.53 530.72 442.88C567.5 436.23 582.4 388.34 582.4 388.34C582.4 388.34 545.62 380.74 559.25 342.06L490.45 344.27Z"
      fill="black" />
    <path
      d="M522.95 365.67C556.568 365.67 583.82 338.418 583.82 304.8C583.82 271.182 556.568 243.93 522.95 243.93C489.332 243.93 462.08 271.182 462.08 304.8C462.08 338.418 489.332 365.67 522.95 365.67Z"
      fill="#EFB7B9" />
    <path
      d="M622.98 420.52V461.9H421.98V422.41C421.982 417.401 423.458 412.503 426.225 408.328C428.993 404.152 432.928 400.884 437.54 398.93L443.31 396.48C457.89 390.27 475.6 382.56 481.39 379.35C482.024 379.034 482.621 378.648 483.17 378.2C486.34 375.03 485.71 379.15 485.71 379.15C485.71 379.15 485.62 379.93 485.56 381.29C485.22 390.6 486.56 427.22 529.46 424.17C571.32 421.17 573.16 392.93 572.78 384.62C572.756 383.85 572.689 383.082 572.58 382.32C572.58 382.1 576.18 383.32 581.06 385.08C589.83 388.31 602.72 393.51 606.19 395.96C607.27 396.71 608.58 397.51 610 398.3C613.953 400.506 617.243 403.73 619.529 407.638C621.815 411.545 623.014 415.993 623 420.52H622.98Z"
      fill="#6C63FF" />
    <path opacity="0.1"
      d="M581.05 385.08C577.51 401.5 566.39 432.26 526.28 433.08C483.57 433.92 481.11 391.44 481.37 379.39C482.009 379.074 482.61 378.684 483.16 378.23C486.33 375.06 485.7 379.18 485.7 379.18C485.7 379.18 480.31 427.69 529.45 424.18C578.59 420.67 572.57 382.33 572.57 382.33C572.57 382.1 576.17 383.28 581.05 385.08Z"
      fill="black" />
    <path
      d="M450.9 307.81C454.9 306.51 459.67 308.71 461.9 311.81C464.13 314.91 464.44 318.66 464.71 322.25C467.36 322.81 468.85 319.81 469.09 317.56C470.09 308.35 470.14 298.97 473.23 290.09C476.32 281.21 483.07 272.61 493.45 269.19C496.98 267.965 500.752 267.605 504.45 268.14C506.64 268.51 508.71 269.27 510.9 269.63C518.47 270.88 526.72 267.29 533.83 269.79C538.28 271.36 541.15 274.99 543.19 278.63C544.099 280.584 545.33 282.372 546.83 283.92C549.83 286.62 554.59 287.33 558.91 288.18C563.23 289.03 567.97 290.49 569.82 293.83C571.49 296.83 570.26 300.33 569.7 303.61C568.845 308.778 569.713 314.084 572.17 318.71C572.97 320.23 574.59 321.95 576.5 321.46C577.369 321.167 578.104 320.57 578.57 319.78C583.57 312.78 583.41 303.7 589.64 297.45C591.73 295.36 594.42 293.72 596.45 291.59C597.986 290.039 599.113 288.13 599.729 286.035C600.345 283.941 600.432 281.726 599.98 279.59C598.86 274.78 594.98 270.77 591.91 266.59C587.874 261.234 584.935 255.134 583.26 248.64C582.965 247.888 582.965 247.052 583.26 246.3C583.848 245.535 584.604 244.915 585.47 244.49C587.167 243.365 588.395 241.659 588.923 239.692C589.452 237.726 589.244 235.634 588.34 233.81C586.6 230.18 582.69 227.49 578.4 225.87C574.11 224.25 569.4 223.56 564.74 222.87C561.68 223.32 558.09 221.57 557.14 219.12C556.72 218.03 556.72 216.85 556.29 215.76C555.46 213.67 553.07 212.19 550.5 211.68C547.886 211.252 545.208 211.44 542.68 212.23C539.8 213.04 536.46 214.23 533.95 212.85C532.63 212.1 531.89 210.74 530.47 210.13C527.59 208.9 524.55 211.38 522.47 213.43C520.452 215.566 517.981 217.223 515.24 218.28C512.35 219.28 508.79 219.28 506.3 217.69C504.3 216.42 503.3 214.38 501.71 212.76C499.1 210.09 494.97 208.64 490.85 208.31C486.718 208.093 482.578 208.545 478.59 209.65C470.977 211.494 463.703 214.532 457.04 218.65C453.71 220.74 450.52 223.18 448.78 226.33C447.544 228.786 446.907 231.5 446.92 234.25C446.61 242.86 449.47 251.94 456.92 257.97C452.38 259.87 450.84 264.52 449.78 268.65C448.08 275.23 446.37 281.93 447.01 288.65C447.33 292.12 448.28 295.59 447.77 299.04C447.53 300.71 446.95 302.35 447.09 304.04C447.276 304.977 447.738 305.837 448.417 306.509C449.096 307.181 449.961 307.634 450.9 307.81V307.81Z"
      fill="#454B69" />
    <g opacity="0.1">
      <path opacity="0.1"
        d="M599.1 276.99C598.441 278.415 597.553 279.723 596.47 280.86C594.47 282.99 591.75 284.63 589.66 286.73C583.43 292.97 583.56 302.08 578.59 309.06C578.124 309.848 577.389 310.441 576.52 310.73C574.61 311.22 572.99 309.5 572.19 307.98C571.218 306.131 570.489 304.165 570.02 302.13C569.913 302.637 569.813 303.147 569.72 303.66C568.865 308.828 569.733 314.134 572.19 318.76C572.99 320.28 574.61 322 576.52 321.51C577.389 321.217 578.124 320.62 578.59 319.83C583.59 312.83 583.43 303.75 589.66 297.5C591.75 295.41 594.44 293.77 596.47 291.64C598.006 290.089 599.133 288.18 599.749 286.085C600.365 283.991 600.452 281.776 600 279.64C599.787 278.73 599.485 277.842 599.1 276.99V276.99Z"
        fill="black" />
      <path opacity="0.1"
        d="M585.51 233.81C584.642 234.228 583.885 234.845 583.3 235.61C583.005 236.362 583.005 237.198 583.3 237.95C583.877 240.217 584.615 242.439 585.51 244.6V244.6C587.227 243.465 588.466 241.737 588.988 239.746C589.51 237.755 589.279 235.641 588.34 233.81C588.059 233.214 587.724 232.645 587.34 232.11C586.819 232.765 586.202 233.338 585.51 233.81V233.81Z"
        fill="black" />
      <path opacity="0.1"
        d="M456.91 247.29C451.753 243.026 448.352 237.008 447.36 230.39C447.102 231.709 446.954 233.047 446.92 234.39C446.599 240.744 448.278 247.039 451.72 252.39C452.767 250.111 454.613 248.297 456.91 247.29Z"
        fill="black" />
      <path opacity="0.1"
        d="M569.72 292.88C570.28 289.6 571.51 286.11 569.84 283.1C567.99 279.76 563.26 278.29 558.93 277.45C554.6 276.61 549.87 275.89 546.85 273.19C545.35 271.642 544.119 269.854 543.21 267.9C541.21 264.26 538.3 260.63 533.85 259.06C526.74 256.56 518.49 260.15 510.92 258.9C508.73 258.54 506.66 257.78 504.47 257.41C500.776 256.859 497.004 257.202 493.47 258.41C483.09 261.83 476.34 270.41 473.25 279.31C470.16 288.21 470.09 297.57 469.11 306.78C468.87 309.03 467.38 312.03 464.73 311.47C464.46 307.88 464.13 304.13 461.92 301.03C459.71 297.93 454.99 295.72 450.92 297.03C449.688 296.752 448.596 296.042 447.84 295.03C447.979 296.361 447.959 297.704 447.78 299.03C447.54 300.7 446.96 302.34 447.1 304.03C447.283 304.968 447.743 305.829 448.42 306.503C449.098 307.177 449.961 307.632 450.9 307.81C454.9 306.51 459.67 308.71 461.9 311.81C464.13 314.91 464.44 318.66 464.71 322.25C467.36 322.81 468.85 319.81 469.09 317.56C470.09 308.35 470.14 298.97 473.23 290.09C476.32 281.21 483.07 272.61 493.45 269.19C496.98 267.965 500.752 267.605 504.45 268.14C506.64 268.51 508.71 269.27 510.9 269.63C518.47 270.88 526.72 267.29 533.83 269.79C538.28 271.36 541.15 274.99 543.19 278.63C544.099 280.584 545.33 282.372 546.83 283.92C549.83 286.62 554.59 287.33 558.91 288.18C563.23 289.03 567.62 290.39 569.6 293.49C569.65 293.32 569.68 293.1 569.72 292.88Z"
        fill="black" />
      <path opacity="0.1"
        d="M447.8 288.34C448.034 285.624 447.873 282.889 447.32 280.22C446.892 283.036 446.798 285.892 447.04 288.73C447.1 289.46 447.2 290.18 447.3 290.91C447.42 290.05 447.64 289.2 447.8 288.34Z"
        fill="black" />
    </g>
    <path d="M908.73 398.69H818.73V461.14H908.73V398.69Z" fill="white" />
    <path opacity="0.1"
      d="M900.71 445.81C899.426 447.969 897.449 449.629 895.1 450.52C895.202 451.319 895.218 452.127 895.15 452.93L886.15 452.39L894.91 454.31C894.325 456.981 892.79 459.347 890.59 460.97H878.41V461.29H865.99C865.99 461.18 865.99 461.08 866.07 460.97C866.337 459.953 866.747 458.98 867.29 458.08C868.573 455.924 870.546 454.265 872.89 453.37C872.57 450.879 873.097 448.353 874.387 446.198C875.677 444.044 877.654 442.385 880 441.49C879.93 440.98 879.9 440.465 879.91 439.95L885.7 442.23L879.97 438.87C880.132 437.351 880.603 435.882 881.355 434.553C882.106 433.223 883.122 432.062 884.34 431.14L889.61 439.68L885.66 430.28C887.812 429.108 890.29 428.675 892.712 429.046C895.134 429.418 897.368 430.573 899.071 432.336C900.773 434.099 901.851 436.371 902.138 438.805C902.425 441.239 901.906 443.7 900.66 445.81H900.71Z"
      fill="#6C63FF" />
    <path opacity="0.1"
      d="M893.6 457.72C892.834 459.006 891.813 460.122 890.6 461H878.41V461.32H865.99C865.99 461.21 865.99 461.11 866.07 461C866.337 459.983 866.747 459.01 867.29 458.11C868.573 455.954 870.546 454.295 872.89 453.4C872.79 452.59 875.2 452.7 878.41 453.24C884.69 454.3 894.03 457.01 893.6 457.72Z"
      fill="#6C63FF" />
    <path opacity="0.1"
      d="M822.15 445.81C823.434 447.969 825.411 449.629 827.76 450.52C827.658 451.319 827.642 452.127 827.71 452.93L836.71 452.39L827.95 454.31C828.535 456.981 830.07 459.347 832.27 460.97H844.48V461.29H856.91C856.91 461.18 856.85 461.08 856.83 460.97C856.555 459.956 856.144 458.984 855.61 458.08C854.321 455.926 852.345 454.267 850 453.37C850.32 450.879 849.792 448.353 848.503 446.198C847.213 444.044 845.236 442.385 842.89 441.49C842.958 440.98 842.991 440.465 842.99 439.95L837.2 442.23L842.92 438.87C842.758 437.351 842.287 435.882 841.535 434.553C840.784 433.223 839.768 432.062 838.55 431.14L833.28 439.68L837.23 430.28C835.077 429.108 832.6 428.675 830.178 429.046C827.755 429.418 825.522 430.573 823.819 432.336C822.117 434.099 821.039 436.371 820.752 438.805C820.465 441.239 820.984 443.7 822.23 445.81H822.15Z"
      fill="#6C63FF" />
    <path opacity="0.1"
      d="M829.26 457.72C830.026 459.006 831.047 460.122 832.26 461H844.47V461.32H856.9C856.9 461.21 856.84 461.11 856.82 461C856.545 459.986 856.134 459.014 855.6 458.11C854.311 455.956 852.335 454.297 849.99 453.4C850.09 452.59 847.68 452.7 844.47 453.24C838.17 454.3 828.8 457.01 829.26 457.72Z"
      fill="#6C63FF" />
    <path d="M872.62 412.45H852.51V434.85H872.62V412.45Z" fill="#464353" />
    <path opacity="0.1" d="M872.62 412.45H852.51V434.85H872.62V412.45Z" fill="black" />
    <path d="M843.94 455.35L843.53 461.17H849.27L849.63 453.48L843.94 455.35Z" fill="#A1616A" />
    <path d="M874.18 455.35L873.31 461.17H878.57L878.9 453.48L874.18 455.35Z" fill="#A1616A" />
    <path
      d="M857.53 423.66C857.53 423.66 857.33 426.57 856.63 427.33C855.93 428.09 862.88 434.82 868.35 428.17C868.35 428.17 866 426.17 866.55 423.93C867.1 421.69 857.53 423.66 857.53 423.66Z"
      fill="#A1616A" />
    <path opacity="0.1"
      d="M857.53 423.66C857.53 423.66 857.33 426.57 856.63 427.33C855.93 428.09 862.88 434.82 868.35 428.17C868.35 428.17 866 426.17 866.55 423.93C867.1 421.69 857.53 423.66 857.53 423.66Z"
      fill="black" />
    <path
      d="M862.56 426.26C868.116 426.26 872.62 421.756 872.62 416.2C872.62 410.644 868.116 406.14 862.56 406.14C857.004 406.14 852.5 410.644 852.5 416.2C852.5 421.756 857.004 426.26 862.56 426.26Z"
      fill="#A1616A" />
    <path
      d="M862.04 429.9C862.04 429.9 857.82 429.83 857.19 425.98C856.354 426.703 855.472 427.371 854.55 427.98C854.14 428.12 850.11 430.4 849.35 430.54C848.607 430.691 847.917 431.036 847.35 431.54C846.356 432.321 845.544 433.308 844.969 434.434C844.394 435.56 844.07 436.797 844.02 438.06C843.88 442.57 843.33 451.38 843.33 451.38L843.54 454.57V456.65C843.54 456.65 847.28 457.65 849.54 455.65C849.54 455.65 849.54 454.89 849.96 454.65C850.38 454.41 850.44 453.4 850.37 452.98C850.334 452.357 850.334 451.733 850.37 451.11C850.442 451.449 850.643 451.746 850.93 451.94C851.096 452.504 851.144 453.097 851.07 453.68C850.86 454.09 850.65 455.06 850.86 455.27C850.966 455.456 851.01 455.671 850.984 455.883C850.959 456.095 850.866 456.294 850.72 456.45C850.339 456.984 850.036 457.57 849.82 458.19C849.82 458.19 849.61 459.43 849.4 459.57C849.163 460.077 849.002 460.616 848.92 461.17H873.92C873.479 459.903 873.144 458.602 872.92 457.28C872.99 456.66 872.3 454.09 872.78 453.4C873.487 452.485 873.876 451.366 873.89 450.21L874.17 452.91L873.41 458.91C873.41 458.91 878.05 460.37 878.54 459.46C879.059 457.876 879.453 456.255 879.72 454.61C879.72 454.61 880.83 449.61 881.11 448.92C881.39 448.23 882.01 434.36 878.26 432.35C874.51 430.34 867.44 426.88 867.26 427.05C866.86 428.06 866.119 428.898 865.165 429.419C864.212 429.939 863.106 430.11 862.04 429.9V429.9Z"
      fill="#6C63FF" />
    <path opacity="0.1"
      d="M849.99 443.46C849.276 444.482 848.969 445.734 849.13 446.97C849.298 448.194 849.699 449.376 850.31 450.45"
      stroke="black" stroke-miterlimit="10" />
    <path opacity="0.1"
      d="M874.28 444.41C874.46 444.918 874.6 445.44 874.7 445.97C874.88 446.632 874.914 447.326 874.8 448.002C874.686 448.679 874.427 449.323 874.04 449.89"
      stroke="black" stroke-miterlimit="10" />
    <path
      d="M858.06 409.32C858.846 409.11 859.682 409.195 860.41 409.56C861.126 409.929 861.876 410.227 862.65 410.45C863.17 410.56 863.65 410.56 864.23 410.64C865.196 410.815 866.087 411.276 866.789 411.962C867.491 412.648 867.972 413.528 868.17 414.49C868.62 416.95 867.17 419.37 867.17 421.88C867.176 423.316 867.681 424.706 868.6 425.81C869.371 426.513 870.044 427.317 870.6 428.2C870.89 428.84 870.95 429.57 871.23 430.2C871.842 431.333 872.855 432.196 874.07 432.62C875.275 433.025 876.437 433.547 877.54 434.18C879.54 435.51 880.72 438.06 883.04 438.61C883.155 438.66 883.279 438.685 883.405 438.685C883.531 438.685 883.655 438.66 883.77 438.61C883.875 438.526 883.961 438.42 884.02 438.299C884.078 438.177 884.109 438.045 884.11 437.91C884.168 437.42 884.114 436.924 883.953 436.458C883.792 435.993 883.528 435.569 883.18 435.22C882.61 434.65 881.78 434.22 881.6 433.45C881.42 432.68 881.9 432.02 882.16 431.32C882.99 429.05 881.61 426.58 880.04 424.74C878.47 422.9 876.59 421.08 876.21 418.74C876.12 417.95 876.09 417.154 876.12 416.36C876.091 414.723 875.808 413.1 875.28 411.55C875.026 410.712 874.62 409.929 874.08 409.24C873.58 408.64 872.94 408.18 872.42 407.6C871.729 406.646 871.108 405.643 870.56 404.6C869.765 403.364 868.68 402.341 867.399 401.621C866.117 400.901 864.679 400.506 863.21 400.47C860.4 400.47 857.74 401.71 855.36 403.2C854.485 403.678 853.726 404.344 853.14 405.15C852.14 406.74 852.44 408.84 851.86 410.64C851.28 412.44 849.91 413.77 849.43 415.53C849.282 416.047 849.258 416.592 849.36 417.12C849.539 417.677 849.777 418.214 850.07 418.72C850.601 420.008 850.902 421.378 850.96 422.77C851.11 424.45 851.18 426.26 850.3 427.69C849.617 428.557 848.767 429.278 847.8 429.81C848.781 430.606 850.032 430.989 851.29 430.88C853.19 430.96 855.39 430.88 856.57 429.38C857.276 428.303 857.561 427.004 857.37 425.73C857.277 424.338 856.994 422.966 856.53 421.65C855.88 419.8 854.88 418.05 854.59 416.11C854.476 415.41 854.506 414.695 854.678 414.007C854.85 413.319 855.16 412.674 855.59 412.11C855.95 411.66 856.59 411.43 856.89 410.95C857.27 410.31 857.16 409.64 858.06 409.32Z"
      fill="#464353" />
    <g opacity="0.1">
      <path opacity="0.1"
        d="M850.07 418.59C850.601 419.878 850.903 421.248 850.96 422.64C850.96 423.08 851.03 423.53 851.04 423.98C851.145 423.003 851.145 422.017 851.04 421.04C850.979 419.665 850.678 418.311 850.15 417.04C849.863 416.534 849.625 416.002 849.44 415.45C849.292 415.964 849.268 416.505 849.37 417.03C849.548 417.573 849.783 418.096 850.07 418.59V418.59Z"
        fill="black" />
      <path opacity="0.1"
        d="M856.66 427.81C855.48 429.3 853.28 429.39 851.38 429.32C850.576 429.323 849.777 429.201 849.01 428.96C848.63 429.27 848.22 429.56 847.82 429.84C848.801 430.636 850.052 431.019 851.31 430.91C853.21 430.99 855.41 430.91 856.59 429.41C857.266 428.41 857.557 427.198 857.41 426C857.321 426.658 857.063 427.282 856.66 427.81Z"
        fill="black" />
      <path opacity="0.1"
        d="M881.67 431.81C881.698 431.924 881.738 432.035 881.79 432.14C881.91 431.86 882.05 431.57 882.16 431.28C882.4 430.621 882.469 429.912 882.36 429.22C882.326 429.379 882.283 429.536 882.23 429.69C881.97 430.39 881.5 431.09 881.67 431.81Z"
        fill="black" />
      <path opacity="0.1"
        d="M868.23 414.97C868.345 414.285 868.345 413.585 868.23 412.9C868.034 411.938 867.553 411.057 866.851 410.37C866.148 409.684 865.256 409.224 864.29 409.05C863.76 408.96 863.23 408.96 862.71 408.86C861.938 408.633 861.188 408.335 860.47 407.97C859.744 407.602 858.908 407.513 858.12 407.72C857.22 408.04 857.33 408.72 856.93 409.38C856.64 409.86 855.99 410.1 855.63 410.54C854.837 411.597 854.48 412.917 854.63 414.23C854.755 413.465 855.076 412.745 855.56 412.14C855.92 411.69 856.56 411.46 856.86 410.98C857.26 410.31 857.15 409.64 858.05 409.32C858.836 409.11 859.672 409.196 860.4 409.56C861.116 409.929 861.866 410.227 862.64 410.45C863.16 410.56 863.64 410.56 864.22 410.64C865.186 410.815 866.077 411.276 866.779 411.962C867.482 412.648 867.962 413.528 868.16 414.49C868.193 414.648 868.217 414.809 868.23 414.97V414.97Z"
        fill="black" />
      <path opacity="0.1"
        d="M883.8 436.98C883.565 437.072 883.305 437.072 883.07 436.98C880.75 436.43 879.55 433.88 877.57 432.55C876.463 431.925 875.302 431.403 874.1 430.99C872.885 430.57 871.872 429.71 871.26 428.58C870.98 427.93 870.92 427.21 870.63 426.58C870.074 425.697 869.401 424.893 868.63 424.19C867.797 423.198 867.294 421.971 867.19 420.68C867.13 421.067 867.1 421.458 867.1 421.85C867.118 423.305 867.649 424.708 868.6 425.81C869.371 426.513 870.044 427.317 870.6 428.2C870.89 428.84 870.95 429.57 871.23 430.2C871.842 431.333 872.855 432.196 874.07 432.62C875.275 433.025 876.437 433.547 877.54 434.18C879.54 435.51 880.72 438.06 883.04 438.61C883.155 438.66 883.28 438.685 883.405 438.685C883.531 438.685 883.655 438.66 883.77 438.61C883.875 438.526 883.96 438.419 884.019 438.298C884.078 438.177 884.109 438.044 884.11 437.91C884.155 437.533 884.135 437.15 884.05 436.78C883.986 436.868 883.9 436.937 883.8 436.98V436.98Z"
        fill="black" />
    </g>
    <path opacity="0.1" d="M840.77 403.28H827.91V421.65H840.77V403.28Z" fill="#6C63FF" />
    <path opacity="0.1" d="M838.93 405.91H829.75V419.03H838.93V405.91Z" fill="#6C63FF" />
    <path opacity="0.1" d="M904.13 406.04H883.01V417.06H904.13V406.04Z" fill="#6C63FF" />
    <path opacity="0.1" d="M901.38 407.48H885.77V415.63H901.38V407.48Z" fill="#6C63FF" />
  </g>
  <defs>
    <clipPath id="clip0">
      <rect width="1155.6" height="697.61" fill="white" />
    </clipPath>
  </defs>
</svg>
