<svg xmlns="http://www.w3.org/2000/svg" width="257.552" height="230.7"  viewBox="0 0 207.552 230.7">
  <path id="Caminho_696" data-name="Caminho 696" class="cls-2" d="M221.26,123.72A95,95,0,1,0,42.11,167.77c7.32-9.21,18.65-12.25,26.68-12.25,17.67,0,30,12.55,33.43,29.26,1.93-3.05,7.73-5.09,11.61-5.1a11,11,0,0,1,10.88,9.84,32.15,32.15,0,0,1,25.38-11.79c11.57,0,20.94,4.91,27,12.92l.37.5s2.6,4.85,4.47,9.57a94.87,94.87,0,0,0,39.33-77Z"/>
  <g id="Grupo_9" data-name="Grupo 9" class="cls-3">
    <path id="Caminho_697" data-name="Caminho 697" class="cls-4" d="M118.8,29A95,95,0,0,0,42.11,167.76,30.23,30.23,0,0,1,49,161.43a110.93,110.93,0,0,1-8.88-42.71C40.14,71.83,74.12,36.07,118.8,29Z"/>
    <path id="Caminho_698" data-name="Caminho 698" class="cls-5" d="M47.49,159.65c-2.56.42-6.11-.36-9,.79,1.4,2.3,1.61,3.89,2.83,5.36,1.8-2.81,5.41-4.44,7.91-6.38C48.65,159.48,48.07,159.56,47.49,159.65Z"/>
    <path id="Caminho_699" data-name="Caminho 699" class="cls-5" d="M126.85,28.47a94.67,94.67,0,0,0-33.78,6.2,94.859,94.859,0,0,1,13.14-.91c52.45,0,95,38.52,95,91,0,23.77-8.74,49.51-23.17,66.16.12.24,2.63,4.95,4.46,9.55a95,95,0,0,0-55.63-172Z"/>
    <path id="Caminho_700" data-name="Caminho 700" class="cls-5" d="M129,181.75a34.86,34.86,0,0,0-7.12.73,10.92,10.92,0,0,1,2.39,5.77,32.5,32.5,0,0,1,7.12-6.43C130.62,181.78,129.83,181.75,129,181.75Z"/>
  </g>
  <path id="Caminho_701" data-name="Caminho 701" class="cls-6" d="M80.64,205c7.52,0,14,4.08,16.77,9.92a14,14,0,0,0-10.12-4.17c-7.45,0-13.49,5.44-13.48,12.15s6,12.13,13.5,12.12a14.541,14.541,0,0,0,4.76-.82,19.39,19.39,0,0,1-11.39,3.62c-10.07,0-18.25-7.33-18.26-16.39S70.57,205,80.64,205Z"/>
  <line id="Linha_90" data-name="Linha 90" class="cls-7" transform="translate(98.33 227.55)"/>
  <path id="Caminho_702" data-name="Caminho 702" class="cls-7" d="M117,207.9c0-17,14.87-31.54,33.24-31.56,17.5,0,31.85,12.43,33.21,28.26"/>
  <path id="Caminho_703" data-name="Caminho 703" class="cls-7" d="M80.39,237.85c-9.91,0-18-7.4-18-16.55s8-16.58,17.93-16.59,18,7.4,18,16.55"/>
  <path id="Caminho_704" data-name="Caminho 704" class="cls-7" d="M94.26,210.57c0-5.87,5.13-10.63,11.49-10.64s11.51,4.75,11.51,10.61"/>
  <line id="Linha_91" data-name="Linha 91" class="cls-8" transform="translate(107.01 160.53)"/>
  <path id="Caminho_705" data-name="Caminho 705" class="cls-8" d="M142,176.25c-4.23-13.52-18.37-21.13-30.85-17.22"/>
  <path id="Caminho_706" data-name="Caminho 706" class="cls-6" d="M111.47,160.53s23.85-3.67,21,19.58l10.23-3S137.92,163.2,126,159C116.54,157.18,111.47,160.53,111.47,160.53Z"/>
  <path id="Caminho_707" data-name="Caminho 707" class="cls-6" d="M35.36,182.45c3.27-21.69,21.39-27.88,32.76-27.89,17.34,0,29.44,12.31,32.78,28.71,1.9-3,7.59-5,11.39-5A10.72,10.72,0,0,1,123,189c-5.18-3.39-6-4.58-11.3-4.57-3.2,0-9.55,2.26-11.3,4.67-3.61-12.1-13.06-19.82-26.27-19.81-13,0-17.75,5.86-21.55,17.6"/>
  <line id="Linha_92" data-name="Linha 92" class="cls-9" transform="translate(55.87 191.44)"/>
  <path id="Caminho_708" data-name="Caminho 708" class="cls-7" d="M100.65,185.61c0-17-14.68-31.51-32.73-31.49-17.19,0-31.27,12.5-32.56,28.33"/>
  <path id="Caminho_709" data-name="Caminho 709" class="cls-7" d="M123,188.23c0-5.87-5.07-10.62-11.31-10.61s-11.3,4.77-11.29,10.63"/>
  <path id="Caminho_710" data-name="Caminho 710" class="cls-6" d="M183.47,204.6c-9.62-3.43-17.52,4.47-17.52,4.47-3.9-11.73-8.77-17.56-22-17.55-13.44,0-23,6.95-26.71,19-1.79-2.4-6.39-2.1-9.64-2.1a9.76,9.76,0,0,0-9.82,9.7,9.09,9.09,0,0,0,.12,1.17,18.13,18.13,0,0,0-3.66-8,10.82,10.82,0,0,1,10.89-10.76c3.87,0,9.67,2,11.61,5,3.37-16.41,15.66-28.76,33.3-28.78,11.57,0,20.94,4.91,27,12.92l.37.5Z"/>
  <path id="Caminho_711" data-name="Caminho 711" class="cls-7" d="M195,209.75a22.07,22.07,0,0,1,7.2,11.72"/>
  <path id="Caminho_712" data-name="Caminho 712" class="cls-7" d="M163.72,212.25a22.19,22.19,0,0,1,31.3-2.5"/>
  <path id="Caminho_713" data-name="Caminho 713" class="cls-6" d="M163.72,213s1.8-1.49,15.36-3.14a27.45,27.45,0,0,1,22.13,7.48,21.41,21.41,0,0,0-11.57-10.55c-8.42-3.17-21.68-.08-25.92,6.31"/>
  <path id="Caminho_714" data-name="Caminho 714" class="cls-7" d="M19.5,195.92a22.21,22.21,0,0,1,39.59,0"/>
  <path id="Caminho_715" data-name="Caminho 715" class="cls-6" d="M19.67,196.64s1.4-1.87,14.2-6.65a27.47,27.47,0,0,1,23.27,2.1,21.45,21.45,0,0,0-13.72-7.55c-8.93-1.11-21.1,5-23.73,12.2"/>
  <g id="gsnPJb">
    <path id="Caminho_716" data-name="Caminho 716" class="cls-5" d="M142.59,36.75c-.75,2.3-2.88,1.87-4.49,2.38l.08.36,2.76.54-.47.93-9.31-.45c1.79-1.72,4-.87,5.93-1.82l-1.58-.92c-.53-1.87,1.66-.67,2-1.6l-2.36-1.83,4.19-1.42-.15-.49h-3.42l-.06-.25,1.21-.77a2.92,2.92,0,0,0-.5-.17,42,42,0,0,0-4.18-.42c-4.59,0-9.19-.18-13.77.08-7.38.42-14.44,2.46-21.36,5A89.55,89.55,0,0,0,69.82,51.09a96.53,96.53,0,0,0-13,13.15c-3.19,3.92-6.66,7.62-9.65,11.69A83.81,83.81,0,0,0,33.93,102a4,4,0,0,1-.3.63c7-37.21,39.07-70.89,82.22-76.1A96.11,96.11,0,0,1,220.16,94.91c13.17,45.46-8.3,88.3-41,108.25,1.46-1.18,2.93-2.35,4.37-3.54a88.65,88.65,0,0,0,25.83-35.21c.4-.95.78-1.91,1.13-2.88.26-.71.79-1.4,0-2.19-.17-.17,0-.8.2-1.16a7.62,7.62,0,0,0,1.11-4.4,2.74,2.74,0,0,1,.43-1.31,3.7,3.7,0,0,0,0-3.38,2.78,2.78,0,0,1-.05-1.41,14.63,14.63,0,0,0,.43-3.16,3.12,3.12,0,0,0-1.36-1.85c-.82-.55-1.62-.11-2.17.67-1.24,1.79-3.1,1.7-4.94,1.57-.27,0-.57-.43-.75-.72-.66-1.13-1.29-2.28-1.92-3.43a6.36,6.36,0,0,1-.62-5.76,9.49,9.49,0,0,0,.29-3.47,14,14,0,0,1,1.87-7c1.28-2.32,2.46-4.7,3.57-7.1a3.32,3.32,0,0,1,2.28-2c1.36-.35,2.68-.82,4-1.3.75-.27,1.15-.07,1.34.69s.5,1.8.78,2.69c.71,2.3,1.71,2.87,4.24,2.31-.32-2.34-.53-4.71-1-7-.1-.47-1.25-.72-1.92-1.07l-.19.32-2.38-4.52h-2.61c-.41,1.59-.79,3.22-1.25,4.81-.57,1.93-1.7,2.22-3.17.86-2.24-2.08-1.48-4.69-1.45-7.37l3.8.77c1.06-2.69-.66-4.51-2.2-6.67,3.13-.41,3.29-2.61,3.47-4.89.14-1.75.56-3.48.74-5.22a1.62,1.62,0,0,0-.67-1.23,6.44,6.44,0,0,1-2.66-5,2.749,2.749,0,0,1,0-.7c.68-5.77-2.38-10-5.72-14.18-2.42-3-4.66-6.19-7.19-9.12a60.239,60.239,0,0,0-5.66-5.4c-2.07-1.81-4.24-3.5-6.37-5.24a1.52,1.52,0,0,0-1-.32c.88,1.32,1.79,2.63,2.62,4a35.978,35.978,0,0,1,1.67,3.21c.13.27.26.77.12.9-1,1-.12,1.57.45,2.21.72.8,1.46,1.58,2.25,2.43-1,1.88-2.78,2.63-4.73,3.11a3.23,3.23,0,0,0-1.24.87c-.91.83-1.78,1.69-2.66,2.56-.45.44-1.09.84-1.28,1.39-.72,2-1.28,4.16-1.94,6.24-.2.65-.52,1.26-1,2.38-1.32-1.54-2.4-2.76-3.44-4s-2.15-2.68-3.3-4.11c1.32-1,.45-1.85-.48-2.79A9.92,9.92,0,0,1,167,64.48a3.25,3.25,0,0,1,.41-3.78c1.31-1.64,1.24-2-.16-3.64l-.94,1.37-.44.1-.91-2.92,2.4,1.08c-.44-1.13-.55-2.26-1.16-2.74s-1.69-.2-2.65-.26a6.33,6.33,0,0,1-.07-1.28,2.55,2.55,0,0,0-.92-2.34,10.19,10.19,0,0,1-1.77-2.46,7.63,7.63,0,0,0-7.46-4.51,8,8,0,0,1-5.56-1.81l1.42-1.14-2.88-2.68h4.61l-.64-2.23,1.71-.91v-.45a9,9,0,0,0-2.08-.66A10.55,10.55,0,0,0,143.53,35a2.07,2.07,0,0,1-1.38.34c-1.2-.29-1.18-.36-1.7.91ZM187.9,61.59l-2.09-1.81C185.69,61.59,186,61.92,187.9,61.59Z"/>
    <path id="Caminho_717" data-name="Caminho 717" class="cls-5" d="M104.82,55.89c2.08-.92,4.55.62,5.83-1.87-2.24-.92-4.15.32-6.12.7l-.12-.43,2.18-1.61-.24-.41-1.12.54-1.18-1.23,3.75-2.7.82,1.57c.84-1,1.56-.92,2.45,0,.25.25,1.21-.21,1.91-.35l.51,1.79,1.85-.63a2.88,2.88,0,0,1-.29-.91,7.28,7.28,0,0,1,.29-1.29c.36.22.89.35,1,.68,1,1.82,1.81,3.69,2.72,5.59l-.79.33.13,1.32a3.29,3.29,0,0,1-1.59-.17,3.26,3.26,0,0,0-3.8.26,3.83,3.83,0,0,1-4.46.28c-.56-.34-1.37-.23-2-.46a11.93,11.93,0,0,1-1.73-1Z"/>
    <path id="Caminho_718" data-name="Caminho 718" class="cls-5" d="M205.19,91.21c-.22-.6-.49-1.29-.73-2a16.67,16.67,0,0,1-.77-2.36c-.06-.28.3-.65.47-1,.35.19.87.28,1,.57a23.484,23.484,0,0,1,.78,2.23,10.82,10.82,0,0,0,1.23,3,6.42,6.42,0,0,1,1.31,4.86c-.09.87-.19.89-2,.69-.09-.78-.21-1.53-.27-2.29a2.38,2.38,0,0,1,.09-1.31c.67-1.11.06-1.48-.94-1.81-.48,1.27.28,3-1.41,3.83l-1-.94.38-.11c-.07-.75-.19-1.51-.2-2.26,0-.38.08-1,.27-1.08a7.091,7.091,0,0,1,1.79-.02Z"/>
    <path id="Caminho_719" data-name="Caminho 719" class="cls-5" d="M190.83,72.32a13,13,0,0,0,0-1.39,5,5,0,0,1-.13-1.31c1,1.26,2.37,1.24,3.73,1.49.92.16,1.78,1.25,2.43,2.1.45.6-.8,2.11-1.66,1.88a11,11,0,0,1-2.9-1.43,10.171,10.171,0,0,1-1.47-1.34Z"/>
    <path id="Caminho_720" data-name="Caminho 720" class="cls-5" d="M123.4,51.8c-2-1.22-3-2.72-1.84-5h2.3l-.56,1.75C125.07,49.8,125.11,50.62,123.4,51.8Z"/>
    <path id="Caminho_721" data-name="Caminho 721" class="cls-5" d="M121.54,43.72l.51-1.34-1.24-.24c.41-1.91,1.52-2,3.65-.42C123.53,43.39,123.05,43.73,121.54,43.72Z"/>
    <path id="Caminho_722" data-name="Caminho 722" class="cls-5" d="M117.1,42.55c-.91,1.91-2.34,1.26-3.36,1.31a12.109,12.109,0,0,1-.3-2.31c0-.32.55-.61,1-1.12l.45,1.75Z"/>
    <path id="Caminho_723" data-name="Caminho 723" class="cls-5" d="M123.75,58.05a7.52,7.52,0,0,1-1.29-1.43c-.08-.13.65-1,1-1a9.11,9.11,0,0,1,2.28.85Z"/>
    <path id="Caminho_724" data-name="Caminho 724" class="cls-5" d="M126.91,42.55l1,2.37-2.3-.61.72-1.85Z"/>
    <path id="Caminho_725" data-name="Caminho 725" class="cls-5" d="M105,42.12l-2.27,1.13-.31-.61,2.2-1.14Z"/>
    <path id="Caminho_726" data-name="Caminho 726" class="cls-5" d="M125.72,40h2.4c-.59.6-1,1.25-1.23,1.2-.5-.09-.92-.57-1.37-.89Z"/>
    <path id="Caminho_727" data-name="Caminho 727" class="cls-5" d="M151.53,175.91c.13-.75.25-1.51.38-2.26a2.25,2.25,0,0,0-1.83-2.74c-3.13-.9-4.89-3-5.81-6.08a13.51,13.51,0,0,0-2.4-3.86c-.49-.66-.89-1.12-.32-2a3.45,3.45,0,0,0,.46-1.72,7.29,7.29,0,0,1,2.79-5.59,3.52,3.52,0,0,0,1.17-2.22c.21-2.52-.52-3.09-3-2.65a4.64,4.64,0,0,1-4-1c-1.44-1.21-2.94-2.29-3.57-4.2a1.78,1.78,0,0,0-1.26-1.08,7.78,7.78,0,0,1-1.9-.47q-2.41-1.28-4.73-2.76c-.65-.42-1.12-.41-1.57.14-.63.8-1.18.6-2,.19-2.27-1.1-4.62-2.05-7-3-1.34-.52-2-1.23-1.55-2.75a1.21,1.21,0,0,0-.17-1c-1.51-1.69-3-3.43-4.66-5a10.51,10.51,0,0,1-3.25-4.81c-.36-1.29-.69-1.46-2.38-1.39,1,3.67,3.84,6.16,5.56,9.31-1.2.22-2.06-.32-2.62-1.82-.39-1.07-.64-2.15-2-2.34-.2,0-.55-.54-.48-.7.42-1.13-.43-1.72-.92-2.49a9.29,9.29,0,0,1-1.15-2.18c-.58-1.78-1.42-3.21-3.38-3.8a3.09,3.09,0,0,1-1.6-1.41,75.58,75.58,0,0,1-3.52-7,4.91,4.91,0,0,1,0-3.08c.63-2.23,1.29-4.37.65-6.74a6.35,6.35,0,0,0-2.66-3.81c-.67-.45-.72-.91-.45-1.65a2.54,2.54,0,0,0-.1-1.65c-1-2.77-3.3-4.44-5.55-6.11-1.37-1-2.51-2.1-2.21-4a1.17,1.17,0,0,0-.62-.92c-2.35-.75-4.74-1.38-7.08-2.16-1.26-.42-2.05-.22-2.53,1.08a1.24,1.24,0,0,1-2,.79l1.35-2a2.85,2.85,0,0,0-2.7,1.66c-1,1.56-1.88,3.24-2.92,4.79a15.91,15.91,0,0,1-2.76,3c.39-1.66,2.6-2.59,1.62-4.76L64,82.39l-.25-2.12-1.33.3c-.93-2.2-.61-3.27,1.43-4.83a17.808,17.808,0,0,0,2-1.55c.31-.32.35-.89.59-1.56-.76.06-1.26.09-1.76.14l-1.35.14c-.34-1.63,0-2.16,1.24-2.55.61-.19,1.69-.62,1.67-.86a8,8,0,0,0-.87-2.33,5,5,0,0,0-.6-.74c2.13-2,4.21-4.09,6.44-6a4.62,4.62,0,0,1,2.48-.5c2-.14,4-.22,6-.29,1.17,0,2.34-.06,3.51,0s2.65-.18,3.56,1.14c.14.21.57.23,1,.38l1.08-2a4.2,4.2,0,0,1,.38.25c.38.37.74.76,1.12,1.14a5.41,5.41,0,0,0,1.1-1.32,1.77,1.77,0,0,1,1.73-1.28,7.55,7.55,0,0,0,2.25-1.11l.85,1.14,1.41-1.07,1.2,1.1c1.2-1.29,2.43-.92,3.84-.34a16.9,16.9,0,0,0,3.61.67l-.23,2.11h4.55a2,2,0,0,1,2,.92c.36.57.86,1.19,1.72.65s.43-1,0-1.6c-.15-.27.19-1.07.54-1.33a1.71,1.71,0,0,1,1.45-.15,9.35,9.35,0,0,0,7.7-.17l1.15,1.89,2.65-3.81c-.81-1.09-1.61-2.07-2.29-3.12a2,2,0,0,1-.31-1.45c.09-.3.9-.72,1.1-.6a8.59,8.59,0,0,1,1.52,1.44,1.43,1.43,0,0,1,.31,1.88c-.11.19.18.88.34.9,1.57.22,2.1,1.27,2.12,2.91l1.78-1.56.9,3.18c1.74-.08,2.1-1.48,2.45-2.58.69-2.15.57-2.19-1.51-3.25-.65-.33-1.3-.69-2-1.07l.93-1.29c-.49,0-.78-.07-1.08-.07-.87,0-1.2-.49-1-1.29a7.77,7.77,0,0,1,1-2.87c.5-.59,1.63-.64,2.7-.76-2.29,1.51-1.07,3.06-.27,4.47.33.56,1.13.85,1.71,1.27l.39-.32-.48-4.29,2.51-1.13.64,3.92c3.39-.11,3.82-.55,2.93-3a5.77,5.77,0,0,1,1.45,1,18.6,18.6,0,0,1,1.66,2.75c.56,1.09,1.23,1.49,2.31.66a2.2,2.2,0,0,1,.64-.18c.06.46.11.85.17,1.24s0,.71.18.78c1.15.55,2.33,1,3.63,1.59-.86,2.08.41,3.26,2.15,4.22.77.43,1.55.87,2.28,1.36,2.56,1.7,2.69,2.28,1.1,5.41-.41-.55-.79-1-1.1-1.46s-.33-1-.66-1.21a4.89,4.89,0,0,0-1.45-.58,4.129,4.129,0,0,0-.33,1.52,3.72,3.72,0,0,0,.8,1.45,6.109,6.109,0,0,0,1.17,1.21c1.11.85,1.71,2.16,1,3.16-.44.64-2.08.85-3,.63-1.68-.38-3.56-.52-4.51-2.59a4.73,4.73,0,0,0-2.75-2,9.33,9.33,0,0,0-3.23.12c.17-2.11.86-2.7,3-2.47a1.09,1.09,0,0,0,.82-.46A5.44,5.44,0,0,0,148.1,63l3.65.66c-.23-.35-.3-.62-.46-.69-3.21-1.28-4.56-4.42-6.74-6.74-.28-.3-.43-.77-.76-1s-1.18-.59-1.36-.43c-1,.93-1.87.35-2.81,0a2.19,2.19,0,0,0-2.83.62l2.35,2a15.51,15.51,0,0,1,.14,3,12.369,12.369,0,0,1-.94,2.87,10.489,10.489,0,0,1-1,1.55c1.1,1.29,3.53,1.2,3.65,3.73L137.81,67l-1.14,2.16c-1.69-.24-2-1.54-2.1-3a10.59,10.59,0,0,0-4.5,3.68c-.92,1.11-2,2.08-2.9,3.22a4.79,4.79,0,0,0-.92,2.22,15.879,15.879,0,0,0,.07,3.08,3,3,0,0,0,1.8,2.77c.85-1,1.73-1.92,2.54-2.92,1.31-1.61,2.16-1.75,3.6-.22a43.836,43.836,0,0,1,2.8,3.67c.37.48.69,1.11,1.19,1.36,1.69.85,1.9,2.37,2.14,4a5.78,5.78,0,0,0,.9,2.31c.22.32,1,.28,1.48.4.1-.46.42-1,.27-1.37-.72-1.72-.16-2.94,1-4.28,2.17-2.45,2.2-4,.44-5.93a2.22,2.22,0,0,1-.51-2.16c.27-1.38.35-2.79.53-4.18a2.841,2.841,0,0,1,.18-.54h4c.29,0,.6.34.85.57a24.791,24.791,0,0,0,2.24,2.12,3.58,3.58,0,0,1,1.73,2.53c.12.73.91,1.37,1.4,2,.61-.5,1.24-1,1.84-1.51a2.22,2.22,0,0,0,.33-.61c.71-1.22,1.12-1.28,1.82-.07a30.71,30.71,0,0,1,1.72,3.7c1.21,2.9,2.72,5.52,5.69,7,1,.53,1.84,3.42,1.42,4.69-.61,1.91-.52,1.91,1.07,3a12.21,12.21,0,0,1,2.35,2.46c.42.53.25,1-.48,1.29-1.06.33-2.12.71-3.38,1.14a2.93,2.93,0,0,0-2.7-2.67c-.92-.19-.6-.87-.25-1.43a2.67,2.67,0,0,0,.32-3,7.78,7.78,0,0,0-3.49,4.07c-.09.24.35.85.68,1.06s1,.18,1.47.38c1.21.52,1.4,1.29.35,2.09-3,2.26-5.74,4.81-9.35,6.08a21.709,21.709,0,0,0-3.42,1.6,5.45,5.45,0,0,0-2.91,4.38,3.64,3.64,0,0,1-2.36,3.45,14.169,14.169,0,0,0-3.53,2.7,1.74,1.74,0,0,0-.25,1.27c.2,1.81.48,3.62.71,5.43.07.59.1,1.18.14,1.78a1.51,1.51,0,0,1-1.95-1.45c-.28-2.12-1.27-3.47-3.57-3.6-.55,0-1.08-.41-1.62-.42a6.19,6.19,0,0,0-2.52.23,3.74,3.74,0,0,1-3.34.1c-2.41-1.14-5.67.91-5.91,3.57a24,24,0,0,1-.66,2.82,2.85,2.85,0,0,0,0,1.09c.12.74.32,1.46.47,2.19.75,3.43,1.52,4,4.91,3.76a2.27,2.27,0,0,0,2-1.26,6.22,6.22,0,0,1,1.74-2.31c.67-.41,1.74-.18,2.63-.24a5.94,5.94,0,0,1-.3,2.06c-1.49,2.66-1.13,3.93,2.17,5.31.26.11.53.18.8.27,1.89.63,1.92.73,1.52,2.71-.16.79-.48,2.07-.13,2.35a9.77,9.77,0,0,0,3.39,1.49,10.629,10.629,0,0,0,3.37.34,2.37,2.37,0,0,0,1.7-1c1.17-2.26,3.14-2.34,5.34-2.66,3-.44,5.63.5,8.39,1.12a5.7,5.7,0,0,0,2-.34h0c-.33,2.4-.32,2.37,1.93,3.78a1.88,1.88,0,0,1,.73,1.17,29.738,29.738,0,0,1,.33,3.07c.09,1.07.37,1.58,1.5,1.13.08,0,.2-.11.26-.08,1.7.76,2.39-.33,2.87-1.77,2.21,1.58,1.38,3.06-.09,4.54l.33.19c1.5-.2,3-.46,4.52-.58.46,0,1.24.15,1.37.45.4.93,1.1,1,1.92,1.06a14.84,14.84,0,0,1,4.25.72c2.5,1.11,3.09,2.58,1.28,4.64-.5.56-1,1.15-1.51,1.66a6.45,6.45,0,0,0-2.14,4.7,8.33,8.33,0,0,1-5.64,7.15c-1.84.63-3.46,1.44-4,3.77-.33,1.39-1.64,2.54-2.53,3.79l-2.91-1.3-8.14-2.75Z"/>
    <path id="Caminho_728" data-name="Caminho 728" class="cls-10" d="M153.28,177.66c.12-.76.25-1.51.38-2.26a2.25,2.25,0,0,0-1.83-2.74c-3.13-.9-4.89-3-5.81-6.08a13.7,13.7,0,0,0-2.4-3.87c-.5-.66-.89-1.11-.32-2a3.36,3.36,0,0,0,.45-1.73,7.28,7.28,0,0,1,2.8-5.58,3.61,3.61,0,0,0,1.17-2.22c.21-2.52-.52-3.1-3-2.65a4.65,4.65,0,0,1-4.06-1c-1.43-1.2-2.93-2.28-3.56-4.19a1.78,1.78,0,0,0-1.26-1.08,8.259,8.259,0,0,1-1.9-.47c-1.61-.86-3.2-1.77-4.73-2.76-.65-.43-1.13-.41-1.57.14-.64.79-1.18.6-2,.19-2.27-1.1-4.62-2.06-7-3-1.35-.52-2-1.23-1.55-2.75a1.25,1.25,0,0,0-.17-1c-1.52-1.7-3-3.43-4.66-5a10.51,10.51,0,0,1-3.25-4.81c-.37-1.29-.69-1.46-2.38-1.39,1,3.67,3.84,6.16,5.56,9.31-1.2.22-2.07-.32-2.62-1.82-.39-1.08-.64-2.15-2-2.34-.2,0-.55-.54-.49-.7.43-1.13-.42-1.72-.91-2.49a9.489,9.489,0,0,1-1.15-2.18c-.58-1.78-1.42-3.21-3.38-3.8A3.05,3.05,0,0,1,100,116a74.531,74.531,0,0,1-3.52-7,5,5,0,0,1-.06-3.08c.63-2.22,1.3-4.36.66-6.73a6.41,6.41,0,0,0-2.66-3.82c-.67-.44-.73-.9-.45-1.64a2.61,2.61,0,0,0-.1-1.65c-1-2.77-3.3-4.44-5.55-6.11-1.37-1-2.52-2.1-2.22-4a1.15,1.15,0,0,0-.61-.92c-2.35-.76-4.74-1.38-7.08-2.16-1.26-.42-2.05-.22-2.53,1.08a1.24,1.24,0,0,1-2,.79l1.35-2a2.85,2.85,0,0,0-2.7,1.66c-1,1.55-1.88,3.24-2.93,4.79a15.28,15.28,0,0,1-2.76,3c.4-1.67,2.61-2.59,1.63-4.76l-2.76.74L65.5,82l-1.33.3c-.93-2.2-.61-3.27,1.43-4.83a18.79,18.79,0,0,0,2-1.55,5.09,5.09,0,0,0,.59-1.56l-1.76.13-1.35.15c-.34-1.63,0-2.17,1.23-2.55.62-.2,1.7-.62,1.68-.86a7.87,7.87,0,0,0-.87-2.33,5.81,5.81,0,0,0-.6-.74c2.13-2,4.2-4.09,6.44-6a4.6,4.6,0,0,1,2.47-.5c2-.15,4-.22,6-.29,1.17,0,2.34-.06,3.51,0s2.65-.18,3.55,1.14c.15.21.58.23,1,.37l1.08-2a2.13,2.13,0,0,1,.37.25c.38.37.75.76,1.13,1.14a5.68,5.68,0,0,0,1.1-1.33,1.77,1.77,0,0,1,1.73-1.27,7.55,7.55,0,0,0,2.25-1.11L98,59.68l1.4-1.08,1.21,1.11c1.2-1.3,2.43-.92,3.84-.34A17.55,17.55,0,0,0,108,60l-.23,2.11h4.55a2,2,0,0,1,2,.92c.37.57.87,1.19,1.73.65s.43-1,0-1.61c-.16-.26.19-1.07.54-1.32a1.71,1.71,0,0,1,1.45-.15,9.43,9.43,0,0,0,7.7-.17L127,62.35l2.65-3.81c-.81-1.1-1.61-2.07-2.29-3.12a2,2,0,0,1-.31-1.45c.08-.3.9-.72,1.09-.6a7.65,7.65,0,0,1,1.52,1.44,1.42,1.42,0,0,1,.31,1.88c-.1.19.18.88.35.9,1.57.21,2.1,1.27,2.12,2.91l1.78-1.56.9,3.17c1.74-.07,2.1-1.47,2.45-2.57.69-2.15.57-2.19-1.51-3.25l-2-1.07.93-1.29c-.49,0-.78-.07-1.08-.08-.87,0-1.2-.48-1-1.29a7.72,7.72,0,0,1,1-2.87c.5-.58,1.62-.64,2.7-.75-2.29,1.51-1.07,3.06-.27,4.47.32.56,1.12.85,1.71,1.26l.39-.31L138,50.07l2.51-1.14.64,3.92c3.39-.11,3.82-.55,2.93-3.05a6,6,0,0,1,1.45,1,19.231,19.231,0,0,1,1.66,2.76c.56,1.09,1.22,1.49,2.3.66a2.39,2.39,0,0,1,.65-.18c.06.46.11.85.17,1.24s0,.71.18.78c1.15.55,2.33,1,3.63,1.59-.86,2.08.41,3.26,2.15,4.22.77.43,1.55.87,2.28,1.36,2.56,1.7,2.68,2.28,1.1,5.41-.42-.55-.79-1-1.1-1.47s-.33-.94-.66-1.2a4.85,4.85,0,0,0-1.46-.58A4.27,4.27,0,0,0,156.1,67a3.72,3.72,0,0,0,.8,1.45,6.39,6.39,0,0,0,1.17,1.21c1.1.84,1.71,2.16,1,3.16-.44.63-2.08.85-3,.63-1.68-.39-3.56-.53-4.51-2.59a4.78,4.78,0,0,0-2.75-2,9.31,9.31,0,0,0-3.23.13c.17-2.11.86-2.7,3-2.47a1.09,1.09,0,0,0,.82-.46,5.44,5.44,0,0,0,.43-1.26l3.64.66c-.22-.35-.29-.62-.45-.69-3.21-1.28-4.56-4.43-6.74-6.74-.28-.31-.44-.78-.76-1s-1.18-.6-1.36-.43c-1,.93-1.87.34-2.82,0a2.18,2.18,0,0,0-2.82.62l2.35,2a15.509,15.509,0,0,1,.14,3,12.29,12.29,0,0,1-.94,2.86,9.54,9.54,0,0,1-1,1.55c1.1,1.3,3.53,1.21,3.64,3.74l-3.17-1.57-1.14,2.16c-1.69-.24-2-1.54-2.1-3a10.64,10.64,0,0,0-4.5,3.67c-.92,1.12-2,2.09-2.91,3.23A4.88,4.88,0,0,0,128,77a15.139,15.139,0,0,0,.07,3.08,3,3,0,0,0,1.8,2.77c.85-1,1.73-1.92,2.54-2.92,1.31-1.61,2.16-1.75,3.6-.22a43.839,43.839,0,0,1,2.8,3.67c.37.48.69,1.11,1.19,1.36,1.69.85,1.89,2.36,2.14,4A5.78,5.78,0,0,0,143,91c.22.32,1,.28,1.47.4.11-.46.43-1,.28-1.37-.72-1.73-.16-2.94,1-4.29,2.17-2.44,2.2-4,.43-5.92a2.25,2.25,0,0,1-.5-2.17c.27-1.37.35-2.78.53-4.17a3.169,3.169,0,0,1,.18-.55h4c.29,0,.6.33.85.57a24.872,24.872,0,0,0,2.24,2.12,3.61,3.61,0,0,1,1.73,2.53c.12.73.91,1.36,1.39,2,.62-.5,1.25-1,1.85-1.51.16-.14.21-.41.33-.61.71-1.22,1.11-1.28,1.82-.07a30,30,0,0,1,1.75,3.66c1.21,2.9,2.72,5.51,5.69,7,1,.53,1.84,3.41,1.42,4.69-.62,1.91-.52,1.91,1.07,3a12.49,12.49,0,0,1,2.35,2.46c.42.53.25,1-.48,1.28-1.07.34-2.12.72-3.38,1.14a3,3,0,0,0-2.7-2.67c-.93-.18-.6-.86-.25-1.42a2.68,2.68,0,0,0,.32-3,7.74,7.74,0,0,0-3.49,4.07c-.09.24.34.85.68,1.06s1,.17,1.47.37c1.21.53,1.39,1.29.35,2.09-3,2.26-5.74,4.82-9.35,6.09a21.821,21.821,0,0,0-3.43,1.6,5.44,5.44,0,0,0-2.9,4.38,3.64,3.64,0,0,1-2.37,3.45,14.061,14.061,0,0,0-3.53,2.7,1.71,1.71,0,0,0-.24,1.26c.2,1.82.47,3.63.71,5.44.07.59.09,1.18.14,1.77a1.49,1.49,0,0,1-1.95-1.44c-.28-2.13-1.27-3.47-3.58-3.6-.54,0-1.07-.41-1.62-.43a6.33,6.33,0,0,0-2.51.24,3.76,3.76,0,0,1-3.35.1c-2.4-1.15-5.66.91-5.9,3.57a23.339,23.339,0,0,1-.66,2.81,3.14,3.14,0,0,0-.05,1.1c.13.73.32,1.46.48,2.19.74,3.43,1.52,4,4.91,3.76a2.26,2.26,0,0,0,2-1.27,6.31,6.31,0,0,1,1.75-2.3c.67-.41,1.73-.18,2.62-.24a5.63,5.63,0,0,1-.29,2.05c-1.49,2.67-1.13,3.94,2.17,5.32.26.11.53.18.8.27,1.89.63,1.92.73,1.52,2.71-.16.79-.48,2.07-.13,2.34a9.79,9.79,0,0,0,3.39,1.5,10.591,10.591,0,0,0,3.36.34,2.41,2.41,0,0,0,1.71-1c1.17-2.26,3.14-2.34,5.34-2.67,3-.44,5.63.5,8.39,1.13a5.45,5.45,0,0,0,1.95-.35h0c-.34,2.4-.32,2.38,1.93,3.79a1.88,1.88,0,0,1,.73,1.17,28.514,28.514,0,0,1,.32,3.07c.08.95.38,1.58,1.51,1.13.08,0,.2-.11.26-.08,1.69.75,2.39-.33,2.87-1.77,2.21,1.58,1.38,3-.1,4.54l.33.19c1.51-.2,3-.46,4.53-.58.46,0,1.24.14,1.37.44.4.94,1.1,1,1.92,1.07a14.711,14.711,0,0,1,4.24.72c2.51,1.11,3.1,2.57,1.29,4.63-.5.57-1,1.16-1.51,1.67a6.41,6.41,0,0,0-2.14,4.7,8.34,8.34,0,0,1-5.64,7.15c-1.84.63-3.46,1.44-4,3.77-.33,1.38-1.64,2.54-2.53,3.79l-2.91-1.3L159.13,180Z"/>
  </g>
  <circle id="Elipse_16" data-name="Elipse 16" class="cls-11" cx="3.63" cy="3.63" r="3.63" transform="translate(92.13 108.93)"/>
  <circle id="Elipse_17" data-name="Elipse 17" class="cls-11" cx="3.63" cy="3.63" r="3.63" transform="translate(126.23 127.08)"/>
  <circle id="Elipse_18" data-name="Elipse 18" class="cls-11" cx="3.63" cy="3.63" r="3.63" transform="translate(146.9 105.34)"/>
  <circle id="Elipse_19" data-name="Elipse 19" class="cls-11" cx="3.63" cy="3.63" r="3.63" transform="translate(204.5 94.12)"/>
  <path id="Caminho_729" data-name="Caminho 729" class="cls-12" d="M96,111s26.49-136.41,72.49-75.42"/>
  <path id="Caminho_730" data-name="Caminho 730" class="cls-13" d="M130.24,129.9s-26-162.24-61.66-83.07"/>
  <path id="Caminho_731" data-name="Caminho 731" class="cls-13" d="M151.46,109.76S28.58,9.68,47.39,70.81"/>
  <path id="Caminho_732" data-name="Caminho 732" class="cls-13" d="M207.76,97.75S119.12-36,108.24,27.68"/>
  <path id="Caminho_733" data-name="Caminho 733" class="cls-14" d="M60.59,55C50.1,65.45,42.12,77.92,39,90"/>
  <path id="Caminho_734" data-name="Caminho 734" class="cls-14" d="M92.33,33.7A93.26,93.26,0,0,0,65,50.86"/>
  <path id="Caminho_735" data-name="Caminho 735" class="cls-14" d="M121.87,27.26A102.34,102.34,0,0,0,104.07,30"/>
  <path id="Caminho_736" data-name="Caminho 736" class="cls-14" d="M146.39,28.62a96.09,96.09,0,0,0-11.08-1.38"/>
  <circle id="Elipse_20" data-name="Elipse 20" class="cls-11" cx="3.63" cy="3.63" r="3.63" transform="translate(35.45 86.34)"/>
  <path id="Caminho_737" data-name="Caminho 737" class="cls-13" d="M39.7,90S206.76-16.88,209.13,71.09"/>
  <path id="Caminho_738" data-name="Caminho 738" class="cls-14" d="M221.93,109.18c-4.48-29.88-21.54-55.28-46.64-69.62"/>
</svg>
