<svg id="Seek" data-name="Seek" xmlns="http://www.w3.org/2000/svg" width="58" height="113.677" viewBox="0 0 58 113.677">
  <path id="Caminho_1323" data-name="Caminho 1323" d="M45.84,76.025l.28,4.7H11.88l.28-4.7-9,2.99L1,79.732C1,64.325,3.49,56.362,9.8,52.644,14,55.285,20.09,56.81,29,56.81s15-1.525,19.2-4.166c6.31,3.717,8.8,11.68,8.8,27.088l-2.15-.717Zm-8.9-.279a1.994,1.994,0,0,0,2-2.272l-1.22-8.262a4.076,4.076,0,0,0-4.05-3.418H24.33a4.076,4.076,0,0,0-4.09,3.418L19,73.474a2,2,0,0,0,2,2.272Z" fill="#fff"/>
  <path id="Caminho_1324" data-name="Caminho 1324" d="M32,69.766a1.993,1.993,0,1,0-2-1.993A2,2,0,0,0,32,69.766Z" fill="#595863"/>
  <path id="Caminho_1325" data-name="Caminho 1325" d="M45.84,76.025l9,2.99c-.75,3.488-4.5,6.558-8.44,6.687l-.29-4.983Z" fill="#f1bf9c"/>
  <path id="Caminho_1326" data-name="Caminho 1326" d="M47.05,96.535,48,112.62c-3.5-10.634-15.5-10.634-19,0V99.664Z" fill="#fff"/>
  <path id="Caminho_1327" data-name="Caminho 1327" d="M48,112.62H29C32.5,101.987,44.5,101.987,48,112.62Z" fill="#757575"/>
  <path id="Caminho_1328" data-name="Caminho 1328" d="M46.82,92.589l.23,3.947L29,99.664V95.678Z" fill="#ff4081"/>
  <path id="Caminho_1329" data-name="Caminho 1329" d="M29,95.678l-17.82-3.09.41-6.887.29-4.973H46.12l.29,4.973.41,6.887Z" fill="#fff"/>
  <path id="Caminho_1330" data-name="Caminho 1330" d="M39,73.474a2,2,0,0,1-2,2.272H21.06a1.994,1.994,0,0,1-2-2.272l1.22-8.262a4.076,4.076,0,0,1,4.05-3.418h9.34a4.076,4.076,0,0,1,4.09,3.418Zm-5-5.7a2,2,0,1,0-.586,1.409A1.988,1.988,0,0,0,34,67.773Z" fill="#fff"/>
  <path id="Caminho_1331" data-name="Caminho 1331" d="M29,99.664V112.62c-3.5-10.634-15.5-10.634-19,0l1-16.085Z" fill="#fff"/>
  <path id="Caminho_1332" data-name="Caminho 1332" d="M29,95.678v3.986L10.95,96.535l.23-3.947Z" fill="#ff4081"/>
  <path id="Caminho_1333" data-name="Caminho 1333" d="M29,112.62H10C13.5,101.987,25.5,101.987,29,112.62Z" fill="#757575"/>
  <path id="Caminho_1334" data-name="Caminho 1334" d="M12.16,76.025l-.28,4.7-.29,4.983c-3.94-.13-7.69-3.2-8.44-6.687Z" fill="#f1bf9c"/>
  <path id="Caminho_1335" data-name="Caminho 1335" d="M3.15,79.015c.75,3.488,4.5,6.558,8.44,6.687" fill="none" stroke="#212121" stroke-linecap="round" stroke-linejoin="round" stroke-width="2"/>
  <path id="Caminho_1336" data-name="Caminho 1336" d="M46.41,85.712c3.94-.13,7.69-3.2,8.44-6.687" fill="none" stroke="#212121" stroke-linecap="round" stroke-linejoin="round" stroke-width="2"/>
  <path id="Caminho_1337" data-name="Caminho 1337" d="M9.8,52.644C3.49,56.362,1,64.325,1,79.732l2.15-.717,9-2.99" fill="none" stroke="#212121" stroke-linecap="round" stroke-linejoin="round" stroke-width="2"/>
  <path id="Caminho_1338" data-name="Caminho 1338" d="M10,112.62l.95-16.085.23-3.947.41-6.887.29-4.973.28-4.7L13,61.793" fill="none" stroke="#212121" stroke-linecap="round" stroke-linejoin="round" stroke-width="2"/>
  <path id="Caminho_1339" data-name="Caminho 1339" d="M45,61.793l.84,14.232.28,4.7.29,4.973.41,6.887.23,3.947L48,112.62" fill="none" stroke="#212121" stroke-linecap="round" stroke-linejoin="round" stroke-width="2"/>
  <path id="Caminho_1340" data-name="Caminho 1340" d="M48.2,52.644c6.31,3.717,8.8,11.68,8.8,27.088l-2.15-.717-9-2.99" fill="none" stroke="#212121" stroke-linecap="round" stroke-linejoin="round" stroke-width="2"/>
  <path id="Caminho_1341" data-name="Caminho 1341" d="M46.12,80.729H11.88" fill="none" stroke="#212121" stroke-linecap="round" stroke-linejoin="round" stroke-width="2"/>
  <path id="Caminho_1342" data-name="Caminho 1342" d="M29,112.62V92.688" fill="none" stroke="#212121" stroke-linecap="round" stroke-linejoin="round" stroke-width="2"/>
  <path id="Caminho_1343" data-name="Caminho 1343" d="M10,112.62c3.5-10.633,15.5-10.633,19,0Z" fill="none" stroke="#212121" stroke-linecap="round" stroke-linejoin="round" stroke-width="2"/>
  <path id="Caminho_1344" data-name="Caminho 1344" d="M29,112.62c3.5-10.633,15.5-10.633,19,0Z" fill="none" stroke="#212121" stroke-linecap="round" stroke-linejoin="round" stroke-width="2"/>
  <path id="Caminho_1345" data-name="Caminho 1345" d="M29,95.678l-17.82-3.09" fill="none" stroke="#212121" stroke-linecap="round" stroke-linejoin="round" stroke-width="2"/>
  <path id="Caminho_1346" data-name="Caminho 1346" d="M29,99.664,10.95,96.535" fill="none" stroke="#212121" stroke-linecap="round" stroke-linejoin="round" stroke-width="2"/>
  <path id="Caminho_1347" data-name="Caminho 1347" d="M46.82,92.589,29,95.678" fill="none" stroke="#212121" stroke-linecap="round" stroke-linejoin="round" stroke-width="2"/>
  <path id="Caminho_1348" data-name="Caminho 1348" d="M47.05,96.535,29,99.664" fill="none" stroke="#212121" stroke-linecap="round" stroke-linejoin="round" stroke-width="2"/>
  <path id="Caminho_1349" data-name="Caminho 1349" d="M36.94,75.746H21.06a1.994,1.994,0,0,1-2-2.272l1.22-8.262a4.076,4.076,0,0,1,4.05-3.418h9.34a4.076,4.076,0,0,1,4.09,3.418l1.22,8.262a2,2,0,0,1-2.04,2.272Z" fill="none" stroke="#212121" stroke-linecap="round" stroke-linejoin="round" stroke-width="2"/>
  <path id="Caminho_1350" data-name="Caminho 1350" d="M32,69.766a1.993,1.993,0,1,0-2-1.993A2,2,0,0,0,32,69.766Z" fill="none" stroke="#212121" stroke-linecap="round" stroke-linejoin="round" stroke-width="2"/>
  <path id="Caminho_1352" data-name="Caminho 1352" d="M57,29.9H49c-.08-6.308-1-10.026-2.88-12.318-2.58-3.07-8.34-4.624-17.12-4.624s-14.54,1.555-17.11,4.624C10,19.876,9.09,23.593,9,29.9H1C1,15.042,7,1,29,1S57,15.042,57,29.9Z" fill="#fff"/>
  <path id="Caminho_1353" data-name="Caminho 1353" d="M49,29.9h8c0,9.568-1.24,17.939-8.8,22.743C44,55.285,37.91,56.81,29,56.81S14,55.285,9.8,52.644C2.24,47.841,1,39.469,1,29.9H9v1c0,13.953,6,19.932,20,19.932S49,44.851,49,30.9Z" fill="#fff"/>
  <path id="Caminho_1354" data-name="Caminho 1354" d="M49,30.9a34.006,34.006,0,0,1-.57,6.6C46.66,46.784,40.56,50.831,29,50.831a32.978,32.978,0,0,1-8-.857C12.67,47.841,9,41.861,9,30.9v-1c.08-6.308,1-10.026,2.88-12.318,2.58-3.069,8.34-4.624,17.12-4.624s14.54,1.555,17.11,4.624c1.92,2.292,2.8,5.98,2.88,12.318C49,30.241,49,30.589,49,30.9Z" fill="#f1bf9c"/>
  <path id="Caminho_1355" data-name="Caminho 1355" d="M48.43,38C46.66,47.239,40.56,51.285,29,51.285a32.978,32.978,0,0,1-8-.857C28.26,47.139,42.69,47.767,48.43,38Z" fill="#dba47f"/>
  <path id="Caminho_1356" data-name="Caminho 1356" d="M1,29.9c0,9.568,1.24,17.939,8.8,22.743C14,55.285,20.09,56.81,29,56.81s15-1.525,19.2-4.166C55.76,47.841,57,39.469,57,29.9,57,15.042,51,1,29,1S1,15.042,1,29.9Z" fill="none" stroke="#212121" stroke-linecap="round" stroke-linejoin="round" stroke-width="2"/>
  <path id="Caminho_1357" data-name="Caminho 1357" d="M49,29.9c-.08-6.308-1-10.026-2.88-12.318-2.58-3.069-8.34-4.624-17.12-4.624s-14.54,1.555-17.11,4.624C10,19.876,9.09,23.593,9,29.9v1c0,13.953,6,19.932,20,19.932S49,44.851,49,30.9Z" fill="none" stroke="#212121" stroke-linecap="round" stroke-linejoin="round" stroke-width="2"/>
  <path id="Caminho_1358" data-name="Caminho 1358" d="M1,29.9H9" fill="none" stroke="#212121" stroke-linecap="round" stroke-linejoin="round" stroke-width="2"/>
  <path id="Caminho_1359" data-name="Caminho 1359" d="M57,29.9H49" fill="none" stroke="#212121" stroke-linecap="round" stroke-linejoin="round" stroke-width="2"/>
  <g id="Grupo_49" data-name="Grupo 49" opacity="0.24">
    <path id="Caminho_1360" data-name="Caminho 1360" d="M15.58,22.656a5.359,5.359,0,0,1,1.26-1.405,5.176,5.176,0,0,1,1.69-.9,5.5,5.5,0,0,1,1.94-.249,7.664,7.664,0,0,1,1.9.339,1,1,0,0,1-.55,1.923h-.13a5.823,5.823,0,0,0-1.35-.458,3.874,3.874,0,0,0-1.39,0,3.8,3.8,0,0,0-1.35.478,4.377,4.377,0,0,0-1.13.917.5.5,0,0,1-.8-.588Z" fill="#27272d" opacity="0.24"/>
  </g>
  <path id="Caminho_1362" data-name="Caminho 1362" d="M38,30.9a2.99,2.99,0,1,0-3-2.99A2.995,2.995,0,0,0,38,30.9Z" fill="#27272d"/>
  <path id="Caminho_1363" data-name="Caminho 1363" d="M20,30.9a2.99,2.99,0,1,0-3-2.99A2.995,2.995,0,0,0,20,30.9Z" fill="#27272d"/>
  <path id="Caminho_1364" data-name="Caminho 1364" d="M36.5,38.373s-3.2,7.345-12,4.2" fill="none" stroke="#212121" stroke-linecap="round" stroke-linejoin="round" stroke-width="2"/>
</svg>
